<svg xmlns="http://www.w3.org/2000/svg" viewBox="0 0 1600 900">
<defs><linearGradient id="bg" x1="0" y1="0" x2="0" y2="1"><stop offset="0" stop-color="#0c1120"/><stop offset="1" stop-color="#1b2540"/></linearGradient></defs>
<rect width="1600" height="900" fill="url(#bg)"/>
<rect x="1309" y="114" width="2" height="2" fill="#ffffff" opacity="0.48"/>
<rect x="501" y="228" width="2" height="2" fill="#ffffff" opacity="0.48"/>
<rect x="1385" y="758" width="3" height="3" fill="#ffffff" opacity="0.19"/>
<rect x="864" y="32" width="2" height="2" fill="#ffffff" opacity="0.19"/>
<rect x="476" y="517" width="3" height="3" fill="#ffffff" opacity="0.16"/>
<rect x="407" y="733" width="3" height="3" fill="#ffffff" opacity="0.47"/>
<rect x="859" y="225" width="2" height="2" fill="#ffffff" opacity="0.42"/>
<rect x="13" y="777" width="2" height="2" fill="#ffffff" opacity="0.46"/>
<rect x="696" y="284" width="2" height="2" fill="#ffffff" opacity="0.25"/>
<rect x="1563" y="344" width="2" height="2" fill="#ffffff" opacity="0.19"/>
<rect x="198" y="367" width="2" height="2" fill="#ffffff" opacity="0.42"/>
<rect x="88" y="747" width="2" height="2" fill="#ffffff" opacity="0.39"/>
<rect x="775" y="80" width="3" height="3" fill="#ffffff" opacity="0.28"/>
<rect x="1287" y="633" width="2" height="2" fill="#ffffff" opacity="0.41"/>
<rect x="1442" y="71" width="2" height="2" fill="#ffffff" opacity="0.45"/>
<rect x="1583" y="296" width="2" height="2" fill="#ffffff" opacity="0.53"/>
<rect x="206" y="389" width="2" height="2" fill="#ffffff" opacity="0.35"/>
<rect x="747" y="166" width="2" height="2" fill="#ffffff" opacity="0.31"/>
<rect x="1372" y="273" width="3" height="3" fill="#ffffff" opacity="0.57"/>
<rect x="1327" y="73" width="3" height="3" fill="#ffffff" opacity="0.44"/>
<rect x="1093" y="746" width="2" height="2" fill="#ffffff" opacity="0.22"/>
<rect x="777" y="276" width="3" height="3" fill="#ffffff" opacity="0.46"/>
<rect x="449" y="701" width="2" height="2" fill="#ffffff" opacity="0.53"/>
<rect x="1589" y="57" width="2" height="2" fill="#ffffff" opacity="0.52"/>
<rect x="646" y="410" width="2" height="2" fill="#ffffff" opacity="0.18"/>
<rect x="1161" y="897" width="3" height="3" fill="#ffffff" opacity="0.29"/>
<rect x="1342" y="511" width="2" height="2" fill="#ffffff" opacity="0.55"/>
<rect x="1316" y="469" width="2" height="2" fill="#ffffff" opacity="0.27"/>
<rect x="505" y="762" width="3" height="3" fill="#ffffff" opacity="0.39"/>
<rect x="1529" y="598" width="2" height="2" fill="#ffffff" opacity="0.55"/>
<rect x="817" y="370" width="2" height="2" fill="#ffffff" opacity="0.60"/>
<rect x="283" y="521" width="2" height="2" fill="#ffffff" opacity="0.19"/>
<rect x="96" y="881" width="2" height="2" fill="#ffffff" opacity="0.22"/>
<rect x="327" y="811" width="3" height="3" fill="#ffffff" opacity="0.34"/>
<rect x="130" y="394" width="2" height="2" fill="#ffffff" opacity="0.42"/>
<rect x="958" y="541" width="2" height="2" fill="#ffffff" opacity="0.59"/>
<rect x="23" y="696" width="3" height="3" fill="#ffffff" opacity="0.20"/>
<rect x="1099" y="768" width="2" height="2" fill="#ffffff" opacity="0.50"/>
<rect x="696" y="114" width="2" height="2" fill="#ffffff" opacity="0.35"/>
<rect x="929" y="3" width="3" height="3" fill="#ffffff" opacity="0.54"/>
<rect x="539" y="512" width="2" height="2" fill="#ffffff" opacity="0.38"/>
<rect x="217" y="891" width="3" height="3" fill="#ffffff" opacity="0.28"/>
<rect x="1308" y="519" width="3" height="3" fill="#ffffff" opacity="0.24"/>
<rect x="765" y="780" width="2" height="2" fill="#ffffff" opacity="0.39"/>
<rect x="1594" y="543" width="2" height="2" fill="#ffffff" opacity="0.42"/>
<rect x="1000" y="19" width="2" height="2" fill="#ffffff" opacity="0.57"/>
<rect x="629" y="245" width="2" height="2" fill="#ffffff" opacity="0.26"/>
<rect x="1161" y="80" width="2" height="2" fill="#ffffff" opacity="0.48"/>
<rect x="141" y="778" width="3" height="3" fill="#ffffff" opacity="0.49"/>
<rect x="262" y="675" width="2" height="2" fill="#ffffff" opacity="0.58"/>
<rect x="338" y="271" width="3" height="3" fill="#ffffff" opacity="0.54"/>
<rect x="866" y="216" width="3" height="3" fill="#ffffff" opacity="0.49"/>
<rect x="1412" y="205" width="3" height="3" fill="#ffffff" opacity="0.29"/>
<rect x="1375" y="665" width="2" height="2" fill="#ffffff" opacity="0.35"/>
<rect x="1059" y="462" width="2" height="2" fill="#ffffff" opacity="0.26"/>
<rect x="131" y="346" width="2" height="2" fill="#ffffff" opacity="0.41"/>
<rect x="471" y="602" width="2" height="2" fill="#ffffff" opacity="0.15"/>
<rect x="1449" y="646" width="2" height="2" fill="#ffffff" opacity="0.25"/>
<rect x="64" y="880" width="2" height="2" fill="#ffffff" opacity="0.18"/>
<rect x="487" y="285" width="3" height="3" fill="#ffffff" opacity="0.37"/>
<rect x="1104" y="135" width="3" height="3" fill="#ffffff" opacity="0.57"/>
<rect x="1169" y="590" width="2" height="2" fill="#ffffff" opacity="0.26"/>
<rect x="968" y="826" width="2" height="2" fill="#ffffff" opacity="0.24"/>
<rect x="198" y="674" width="2" height="2" fill="#ffffff" opacity="0.31"/>
<rect x="841" y="478" width="3" height="3" fill="#ffffff" opacity="0.17"/>
<rect x="1338" y="661" width="2" height="2" fill="#ffffff" opacity="0.18"/>
<rect x="1491" y="347" width="2" height="2" fill="#ffffff" opacity="0.26"/>
<rect x="389" y="549" width="2" height="2" fill="#ffffff" opacity="0.21"/>
<rect x="375" y="285" width="2" height="2" fill="#ffffff" opacity="0.26"/>
<rect x="154" y="453" width="3" height="3" fill="#ffffff" opacity="0.19"/>
<rect x="1335" y="553" width="2" height="2" fill="#ffffff" opacity="0.59"/>
<rect x="1543" y="869" width="2" height="2" fill="#ffffff" opacity="0.22"/>
<rect x="994" y="492" width="2" height="2" fill="#ffffff" opacity="0.54"/>
<rect x="120" y="168" width="2" height="2" fill="#ffffff" opacity="0.15"/>
<rect x="799" y="271" width="2" height="2" fill="#ffffff" opacity="0.28"/>
<rect x="1426" y="748" width="3" height="3" fill="#ffffff" opacity="0.45"/>
<rect x="996" y="158" width="2" height="2" fill="#ffffff" opacity="0.28"/>
<rect x="119" y="593" width="3" height="3" fill="#ffffff" opacity="0.39"/>
<rect x="1531" y="321" width="2" height="2" fill="#ffffff" opacity="0.17"/>
<rect x="976" y="514" width="3" height="3" fill="#ffffff" opacity="0.22"/>
<rect x="1040" y="82" width="2" height="2" fill="#ffffff" opacity="0.18"/>
<rect x="139" y="691" width="2" height="2" fill="#ffffff" opacity="0.33"/>
<rect x="1166" y="252" width="3" height="3" fill="#ffffff" opacity="0.42"/>
<rect x="1268" y="83" width="2" height="2" fill="#ffffff" opacity="0.45"/>
<rect x="1157" y="535" width="2" height="2" fill="#ffffff" opacity="0.57"/>
<rect x="418" y="685" width="3" height="3" fill="#ffffff" opacity="0.29"/>
<rect x="543" y="405" width="2" height="2" fill="#ffffff" opacity="0.45"/>
<rect x="614" y="468" width="2" height="2" fill="#ffffff" opacity="0.57"/>
<rect x="148" y="9" width="2" height="2" fill="#ffffff" opacity="0.43"/>
<rect x="1153" y="102" width="2" height="2" fill="#ffffff" opacity="0.39"/>
<rect x="180" y="700" width="420" height="40" rx="4" fill="#646470" stroke="#3f3f4a" stroke-width="2"/>
<rect x="180" y="700" width="420" height="12" rx="4" fill="#609654"/>
<rect x="1050" y="640" width="380" height="40" rx="4" fill="#646470" stroke="#3f3f4a" stroke-width="2"/>
<rect x="1050" y="640" width="380" height="12" rx="4" fill="#609654"/>
<rect x="620" y="520" width="300" height="40" rx="4" fill="#646470" stroke="#3f3f4a" stroke-width="2"/>
<rect x="620" y="520" width="300" height="12" rx="4" fill="#609654"/>
<rect x="80" y="420" width="260" height="40" rx="4" fill="#646470" stroke="#3f3f4a" stroke-width="2"/>
<rect x="80" y="420" width="260" height="12" rx="4" fill="#609654"/>
<rect x="1250" y="400" width="270" height="40" rx="4" fill="#646470" stroke="#3f3f4a" stroke-width="2"/>
<rect x="1250" y="400" width="270" height="12" rx="4" fill="#609654"/>
<rect x="240" y="380" width="14" height="14" fill="rgb(52,52,64)"/><rect x="254" y="380" width="14" height="14" fill="rgb(52,52,64)"/><rect x="268" y="380" width="14" height="14" fill="rgb(52,52,64)"/><rect x="282" y="380" width="14" height="14" fill="rgb(52,52,64)"/><rect x="296" y="380" width="14" height="14" fill="rgb(52,52,64)"/><rect x="310" y="380" width="14" height="14" fill="rgb(52,52,64)"/><rect x="324" y="380" width="14" height="14" fill="rgb(52,52,64)"/><rect x="338" y="380" width="14" height="14" fill="rgb(52,52,64)"/><rect x="352" y="380" width="14" height="14" fill="rgb(52,52,64)"/><rect x="366" y="380" width="14" height="14" fill="rgb(52,52,64)"/><rect x="380" y="380" width="14" height="14" fill="rgb(52,52,64)"/><rect x="394" y="380" width="14" height="14" fill="rgb(52,52,64)"/><rect x="408" y="380" width="14" height="14" fill="rgb(52,52,64)"/><rect x="422" y="380" width="14" height="14" fill="rgb(52,52,64)"/><rect x="436" y="380" width="14" height="14" fill="rgb(52,52,64)"/><rect x="450" y="380" width="14" height="14" fill="rgb(52,52,64)"/><rect x="240" y="394" width="14" height="14" fill="rgb(52,52,64)"/><rect x="254" y="394" width="14" height="14" fill="rgb(52,52,64)"/><rect x="268" y="394" width="14" height="14" fill="rgb(52,52,64)"/><rect x="282" y="394" width="14" height="14" fill="rgb(52,52,64)"/><rect x="296" y="394" width="14" height="14" fill="rgb(52,52,64)"/><rect x="310" y="394" width="14" height="14" fill="rgb(52,52,64)"/><rect x="324" y="394" width="14" height="14" fill="rgb(52,52,64)"/><rect x="338" y="394" width="14" height="14" fill="rgb(52,52,64)"/><rect x="352" y="394" width="14" height="14" fill="rgb(52,52,64)"/><rect x="366" y="394" width="14" height="14" fill="rgb(52,52,64)"/><rect x="380" y="394" width="14" height="14" fill="rgb(52,52,64)"/><rect x="394" y="394" width="14" height="14" fill="rgb(52,52,64)"/><rect x="408" y="394" width="14" height="14" fill="rgb(52,52,64)"/><rect x="422" y="394" width="14" height="14" fill="rgb(52,52,64)"/><rect x="436" y="394" width="14" height="14" fill="rgb(52,52,64)"/><rect x="450" y="394" width="14" height="14" fill="rgb(52,52,64)"/><rect x="240" y="408" width="14" height="14" fill="rgb(52,52,64)"/><rect x="254" y="408" width="14" height="14" fill="rgb(52,52,64)"/><rect x="268" y="408" width="14" height="14" fill="rgb(52,52,64)"/><rect x="282" y="408" width="14" height="14" fill="rgb(139,90,43)"/><rect x="296" y="408" width="14" height="14" fill="rgb(139,90,43)"/><rect x="310" y="408" width="14" height="14" fill="rgb(139,90,43)"/><rect x="324" y="408" width="14" height="14" fill="rgb(139,90,43)"/><rect x="338" y="408" width="14" height="14" fill="rgb(139,90,43)"/><rect x="352" y="408" width="14" height="14" fill="rgb(139,90,43)"/><rect x="366" y="408" width="14" height="14" fill="rgb(139,90,43)"/><rect x="380" y="408" width="14" height="14" fill="rgb(139,90,43)"/><rect x="394" y="408" width="14" height="14" fill="rgb(139,90,43)"/><rect x="408" y="408" width="14" height="14" fill="rgb(139,90,43)"/><rect x="422" y="408" width="14" height="14" fill="rgb(52,52,64)"/><rect x="436" y="408" width="14" height="14" fill="rgb(52,52,64)"/><rect x="450" y="408" width="14" height="14" fill="rgb(52,52,64)"/><rect x="240" y="422" width="14" height="14" fill="rgb(52,52,64)"/><rect x="254" y="422" width="14" height="14" fill="rgb(52,52,64)"/><rect x="268" y="422" width="14" height="14" fill="rgb(52,52,64)"/><rect x="282" y="422" width="14" height="14" fill="rgb(139,90,43)"/><rect x="296" y="422" width="14" height="14" fill="rgb(139,90,43)"/><rect x="310" y="422" width="14" height="14" fill="rgb(139,90,43)"/><rect x="324" y="422" width="14" height="14" fill="rgb(139,90,43)"/><rect x="338" y="422" width="14" height="14" fill="rgb(139,90,43)"/><rect x="352" y="422" width="14" height="14" fill="rgb(139,90,43)"/><rect x="366" y="422" width="14" height="14" fill="rgb(139,90,43)"/><rect x="380" y="422" width="14" height="14" fill="rgb(139,90,43)"/><rect x="394" y="422" width="14" height="14" fill="rgb(139,90,43)"/><rect x="408" y="422" width="14" height="14" fill="rgb(139,90,43)"/><rect x="422" y="422" width="14" height="14" fill="rgb(52,52,64)"/><rect x="436" y="422" width="14" height="14" fill="rgb(52,52,64)"/><rect x="450" y="422" width="14" height="14" fill="rgb(52,52,64)"/><rect x="240" y="436" width="14" height="14" fill="rgb(52,52,64)"/><rect x="254" y="436" width="14" height="14" fill="rgb(52,52,64)"/><rect x="268" y="436" width="14" height="14" fill="rgb(52,52,64)"/><rect x="282" y="436" width="14" height="14" fill="rgb(139,90,43)"/><rect x="296" y="436" width="14" height="14" fill="rgb(139,90,43)"/><rect x="310" y="436" width="14" height="14" fill="rgb(139,90,43)"/><rect x="324" y="436" width="14" height="14" fill="rgb(139,90,43)"/><rect x="338" y="436" width="14" height="14" fill="rgb(139,90,43)"/><rect x="352" y="436" width="14" height="14" fill="rgb(139,90,43)"/><rect x="366" y="436" width="14" height="14" fill="rgb(139,90,43)"/><rect x="380" y="436" width="14" height="14" fill="rgb(139,90,43)"/><rect x="394" y="436" width="14" height="14" fill="rgb(139,90,43)"/><rect x="408" y="436" width="14" height="14" fill="rgb(139,90,43)"/><rect x="422" y="436" width="14" height="14" fill="rgb(52,52,64)"/><rect x="436" y="436" width="14" height="14" fill="rgb(52,52,64)"/><rect x="450" y="436" width="14" height="14" fill="rgb(52,52,64)"/><rect x="240" y="450" width="14" height="14" fill="rgb(52,52,64)"/><rect x="254" y="450" width="14" height="14" fill="rgb(52,52,64)"/><rect x="268" y="450" width="14" height="14" fill="rgb(52,52,64)"/><rect x="282" y="450" width="14" height="14" fill="rgb(139,90,43)"/><rect x="296" y="450" width="14" height="14" fill="rgb(139,90,43)"/><rect x="310" y="450" width="14" height="14" fill="rgb(139,90,43)"/><rect x="324" y="450" width="14" height="14" fill="rgb(139,90,43)"/><rect x="338" y="450" width="14" height="14" fill="rgb(139,90,43)"/><rect x="352" y="450" width="14" height="14" fill="rgb(139,90,43)"/><rect x="366" y="450" width="14" height="14" fill="rgb(139,90,43)"/><rect x="380" y="450" width="14" height="14" fill="rgb(139,90,43)"/><rect x="394" y="450" width="14" height="14" fill="rgb(139,90,43)"/><rect x="408" y="450" width="14" height="14" fill="rgb(139,90,43)"/><rect x="422" y="450" width="14" height="14" fill="rgb(52,52,64)"/><rect x="436" y="450" width="14" height="14" fill="rgb(52,52,64)"/><rect x="450" y="450" width="14" height="14" fill="rgb(52,52,64)"/><rect x="240" y="464" width="14" height="14" fill="rgb(52,52,64)"/><rect x="254" y="464" width="14" height="14" fill="rgb(52,52,64)"/><rect x="268" y="464" width="14" height="14" fill="rgb(52,52,64)"/><rect x="282" y="464" width="14" height="14" fill="rgb(52,52,64)"/><rect x="296" y="464" width="14" height="14" fill="rgb(52,52,64)"/><rect x="310" y="464" width="14" height="14" fill="rgb(52,52,64)"/><rect x="324" y="464" width="14" height="14" fill="rgb(52,52,64)"/><rect x="338" y="464" width="14" height="14" fill="rgb(52,52,64)"/><rect x="352" y="464" width="14" height="14" fill="rgb(52,52,64)"/><rect x="366" y="464" width="14" height="14" fill="rgb(52,52,64)"/><rect x="380" y="464" width="14" height="14" fill="rgb(52,52,64)"/><rect x="394" y="464" width="14" height="14" fill="rgb(52,52,64)"/><rect x="408" y="464" width="14" height="14" fill="rgb(52,52,64)"/><rect x="422" y="464" width="14" height="14" fill="rgb(52,52,64)"/><rect x="436" y="464" width="14" height="14" fill="rgb(52,52,64)"/><rect x="450" y="464" width="14" height="14" fill="rgb(52,52,64)"/><rect x="240" y="478" width="14" height="14" fill="rgb(52,52,64)"/><rect x="254" y="478" width="14" height="14" fill="rgb(52,52,64)"/><rect x="268" y="478" width="14" height="14" fill="rgb(52,52,64)"/><rect x="282" y="478" width="14" height="14" fill="rgb(52,52,64)"/><rect x="296" y="478" width="14" height="14" fill="rgb(52,52,64)"/><rect x="310" y="478" width="14" height="14" fill="rgb(52,52,64)"/><rect x="324" y="478" width="14" height="14" fill="rgb(52,52,64)"/><rect x="338" y="478" width="14" height="14" fill="rgb(52,52,64)"/><rect x="352" y="478" width="14" height="14" fill="rgb(52,52,64)"/><rect x="366" y="478" width="14" height="14" fill="rgb(52,52,64)"/><rect x="380" y="478" width="14" height="14" fill="rgb(52,52,64)"/><rect x="394" y="478" width="14" height="14" fill="rgb(52,52,64)"/><rect x="408" y="478" width="14" height="14" fill="rgb(52,52,64)"/><rect x="422" y="478" width="14" height="14" fill="rgb(52,52,64)"/><rect x="436" y="478" width="14" height="14" fill="rgb(52,52,64)"/><rect x="450" y="478" width="14" height="14" fill="rgb(52,52,64)"/><rect x="240" y="492" width="14" height="14" fill="rgb(52,52,64)"/><rect x="254" y="492" width="14" height="14" fill="rgb(52,52,64)"/><rect x="268" y="492" width="14" height="14" fill="rgb(52,52,64)"/><rect x="282" y="492" width="14" height="14" fill="rgb(52,52,64)"/><rect x="296" y="492" width="14" height="14" fill="rgb(52,52,64)"/><rect x="310" y="492" width="14" height="14" fill="rgb(52,52,64)"/><rect x="324" y="492" width="14" height="14" fill="rgb(52,52,64)"/><rect x="338" y="492" width="14" height="14" fill="rgb(52,52,64)"/><rect x="352" y="492" width="14" height="14" fill="rgb(52,52,64)"/><rect x="366" y="492" width="14" height="14" fill="rgb(52,52,64)"/><rect x="380" y="492" width="14" height="14" fill="rgb(52,52,64)"/><rect x="394" y="492" width="14" height="14" fill="rgb(52,52,64)"/><rect x="408" y="492" width="14" height="14" fill="rgb(52,52,64)"/><rect x="422" y="492" width="14" height="14" fill="rgb(52,52,64)"/><rect x="436" y="492" width="14" height="14" fill="rgb(52,52,64)"/><rect x="450" y="492" width="14" height="14" fill="rgb(52,52,64)"/><rect x="240" y="506" width="14" height="14" fill="rgb(52,52,64)"/><rect x="254" y="506" width="14" height="14" fill="rgb(52,52,64)"/><rect x="268" y="506" width="14" height="14" fill="rgb(52,52,64)"/><rect x="282" y="506" width="14" height="14" fill="rgb(52,52,64)"/><rect x="296" y="506" width="14" height="14" fill="rgb(52,52,64)"/><rect x="310" y="506" width="14" height="14" fill="rgb(52,52,64)"/><rect x="324" y="506" width="14" height="14" fill="rgb(52,52,64)"/><rect x="338" y="506" width="14" height="14" fill="rgb(52,52,64)"/><rect x="352" y="506" width="14" height="14" fill="rgb(52,52,64)"/><rect x="366" y="506" width="14" height="14" fill="rgb(52,52,64)"/><rect x="380" y="506" width="14" height="14" fill="rgb(52,52,64)"/><rect x="394" y="506" width="14" height="14" fill="rgb(52,52,64)"/><rect x="408" y="506" width="14" height="14" fill="rgb(52,52,64)"/><rect x="422" y="506" width="14" height="14" fill="rgb(52,52,64)"/><rect x="436" y="506" width="14" height="14" fill="rgb(52,52,64)"/><rect x="450" y="506" width="14" height="14" fill="rgb(52,52,64)"/><rect x="240" y="520" width="14" height="14" fill="rgb(52,52,64)"/><rect x="254" y="520" width="14" height="14" fill="rgb(52,52,64)"/><rect x="268" y="520" width="14" height="14" fill="rgb(52,52,64)"/><rect x="282" y="520" width="14" height="14" fill="rgb(52,52,64)"/><rect x="296" y="520" width="14" height="14" fill="rgb(52,52,64)"/><rect x="310" y="520" width="14" height="14" fill="rgb(52,52,64)"/><rect x="324" y="520" width="14" height="14" fill="rgb(52,52,64)"/><rect x="338" y="520" width="14" height="14" fill="rgb(52,52,64)"/><rect x="352" y="520" width="14" height="14" fill="rgb(52,52,64)"/><rect x="366" y="520" width="14" height="14" fill="rgb(52,52,64)"/><rect x="380" y="520" width="14" height="14" fill="rgb(52,52,64)"/><rect x="394" y="520" width="14" height="14" fill="rgb(52,52,64)"/><rect x="408" y="520" width="14" height="14" fill="rgb(52,52,64)"/><rect x="422" y="520" width="14" height="14" fill="rgb(52,52,64)"/><rect x="436" y="520" width="14" height="14" fill="rgb(52,52,64)"/><rect x="450" y="520" width="14" height="14" fill="rgb(52,52,64)"/><rect x="240" y="534" width="14" height="14" fill="rgb(52,52,64)"/><rect x="254" y="534" width="14" height="14" fill="rgb(52,52,64)"/><rect x="268" y="534" width="14" height="14" fill="rgb(52,52,64)"/><rect x="282" y="534" width="14" height="14" fill="rgb(52,52,64)"/><rect x="296" y="534" width="14" height="14" fill="rgb(52,52,64)"/><rect x="310" y="534" width="14" height="14" fill="rgb(52,52,64)"/><rect x="324" y="534" width="14" height="14" fill="rgb(52,52,64)"/><rect x="338" y="534" width="14" height="14" fill="rgb(52,52,64)"/><rect x="352" y="534" width="14" height="14" fill="rgb(52,52,64)"/><rect x="366" y="534" width="14" height="14" fill="rgb(52,52,64)"/><rect x="380" y="534" width="14" height="14" fill="rgb(52,52,64)"/><rect x="394" y="534" width="14" height="14" fill="rgb(52,52,64)"/><rect x="408" y="534" width="14" height="14" fill="rgb(52,52,64)"/><rect x="422" y="534" width="14" height="14" fill="rgb(52,52,64)"/><rect x="436" y="534" width="14" height="14" fill="rgb(52,52,64)"/><rect x="450" y="534" width="14" height="14" fill="rgb(52,52,64)"/><rect x="240" y="548" width="14" height="14" fill="rgb(52,52,64)"/><rect x="254" y="548" width="14" height="14" fill="rgb(52,52,64)"/><rect x="268" y="548" width="14" height="14" fill="rgb(52,52,64)"/><rect x="282" y="548" width="14" height="14" fill="rgb(52,52,64)"/><rect x="296" y="548" width="14" height="14" fill="rgb(52,52,64)"/><rect x="310" y="548" width="14" height="14" fill="rgb(52,52,64)"/><rect x="324" y="548" width="14" height="14" fill="rgb(52,52,64)"/><rect x="338" y="548" width="14" height="14" fill="rgb(52,52,64)"/><rect x="352" y="548" width="14" height="14" fill="rgb(52,52,64)"/><rect x="366" y="548" width="14" height="14" fill="rgb(52,52,64)"/><rect x="380" y="548" width="14" height="14" fill="rgb(52,52,64)"/><rect x="394" y="548" width="14" height="14" fill="rgb(52,52,64)"/><rect x="408" y="548" width="14" height="14" fill="rgb(52,52,64)"/><rect x="422" y="548" width="14" height="14" fill="rgb(52,52,64)"/><rect x="436" y="548" width="14" height="14" fill="rgb(52,52,64)"/><rect x="450" y="548" width="14" height="14" fill="rgb(52,52,64)"/><rect x="240" y="562" width="14" height="14" fill="rgb(52,52,64)"/><rect x="254" y="562" width="14" height="14" fill="rgb(52,52,64)"/><rect x="268" y="562" width="14" height="14" fill="rgb(52,52,64)"/><rect x="282" y="562" width="14" height="14" fill="rgb(52,52,64)"/><rect x="296" y="562" width="14" height="14" fill="rgb(52,52,64)"/><rect x="310" y="562" width="14" height="14" fill="rgb(52,52,64)"/><rect x="324" y="562" width="14" height="14" fill="rgb(52,52,64)"/><rect x="338" y="562" width="14" height="14" fill="rgb(52,52,64)"/><rect x="352" y="562" width="14" height="14" fill="rgb(52,52,64)"/><rect x="366" y="562" width="14" height="14" fill="rgb(52,52,64)"/><rect x="380" y="562" width="14" height="14" fill="rgb(52,52,64)"/><rect x="394" y="562" width="14" height="14" fill="rgb(52,52,64)"/><rect x="408" y="562" width="14" height="14" fill="rgb(52,52,64)"/><rect x="422" y="562" width="14" height="14" fill="rgb(52,52,64)"/><rect x="436" y="562" width="14" height="14" fill="rgb(52,52,64)"/><rect x="450" y="562" width="14" height="14" fill="rgb(52,52,64)"/><rect x="240" y="576" width="14" height="14" fill="rgb(52,52,64)"/><rect x="254" y="576" width="14" height="14" fill="rgb(52,52,64)"/><rect x="268" y="576" width="14" height="14" fill="rgb(52,52,64)"/><rect x="282" y="576" width="14" height="14" fill="rgb(52,52,64)"/><rect x="296" y="576" width="14" height="14" fill="rgb(52,52,64)"/><rect x="310" y="576" width="14" height="14" fill="rgb(52,52,64)"/><rect x="324" y="576" width="14" height="14" fill="rgb(52,52,64)"/><rect x="338" y="576" width="14" height="14" fill="rgb(52,52,64)"/><rect x="352" y="576" width="14" height="14" fill="rgb(52,52,64)"/><rect x="366" y="576" width="14" height="14" fill="rgb(52,52,64)"/><rect x="380" y="576" width="14" height="14" fill="rgb(52,52,64)"/><rect x="394" y="576" width="14" height="14" fill="rgb(52,52,64)"/><rect x="408" y="576" width="14" height="14" fill="rgb(52,52,64)"/><rect x="422" y="576" width="14" height="14" fill="rgb(52,52,64)"/><rect x="436" y="576" width="14" height="14" fill="rgb(52,52,64)"/><rect x="450" y="576" width="14" height="14" fill="rgb(52,52,64)"/><rect x="240" y="590" width="14" height="14" fill="rgb(52,52,64)"/><rect x="254" y="590" width="14" height="14" fill="rgb(52,52,64)"/><rect x="268" y="590" width="14" height="14" fill="rgb(52,52,64)"/><rect x="282" y="590" width="14" height="14" fill="rgb(52,52,64)"/><rect x="296" y="590" width="14" height="14" fill="rgb(52,52,64)"/><rect x="310" y="590" width="14" height="14" fill="rgb(52,52,64)"/><rect x="324" y="590" width="14" height="14" fill="rgb(52,52,64)"/><rect x="338" y="590" width="14" height="14" fill="rgb(52,52,64)"/><rect x="352" y="590" width="14" height="14" fill="rgb(52,52,64)"/><rect x="366" y="590" width="14" height="14" fill="rgb(52,52,64)"/><rect x="380" y="590" width="14" height="14" fill="rgb(52,52,64)"/><rect x="394" y="590" width="14" height="14" fill="rgb(52,52,64)"/><rect x="408" y="590" width="14" height="14" fill="rgb(52,52,64)"/><rect x="422" y="590" width="14" height="14" fill="rgb(52,52,64)"/><rect x="436" y="590" width="14" height="14" fill="rgb(52,52,64)"/><rect x="450" y="590" width="14" height="14" fill="rgb(52,52,64)"/>
<rect x="1230" y="250" width="9" height="9" fill="rgb(52,52,64)"/><rect x="1239" y="250" width="9" height="9" fill="rgb(52,52,64)"/><rect x="1248" y="250" width="9" height="9" fill="rgb(52,52,64)"/><rect x="1257" y="250" width="9" height="9" fill="rgb(52,52,64)"/><rect x="1266" y="250" width="9" height="9" fill="rgb(52,52,64)"/><rect x="1275" y="250" width="9" height="9" fill="rgb(52,52,64)"/><rect x="1284" y="250" width="9" height="9" fill="rgb(52,52,64)"/><rect x="1293" y="250" width="9" height="9" fill="rgb(52,52,64)"/><rect x="1302" y="250" width="9" height="9" fill="rgb(52,52,64)"/><rect x="1311" y="250" width="9" height="9" fill="rgb(52,52,64)"/><rect x="1320" y="250" width="9" height="9" fill="rgb(52,52,64)"/><rect x="1329" y="250" width="9" height="9" fill="rgb(52,52,64)"/><rect x="1338" y="250" width="9" height="9" fill="rgb(52,52,64)"/><rect x="1347" y="250" width="9" height="9" fill="rgb(52,52,64)"/><rect x="1356" y="250" width="9" height="9" fill="rgb(52,52,64)"/><rect x="1365" y="250" width="9" height="9" fill="rgb(52,52,64)"/><rect x="1230" y="259" width="9" height="9" fill="rgb(52,52,64)"/><rect x="1239" y="259" width="9" height="9" fill="rgb(52,52,64)"/><rect x="1248" y="259" width="9" height="9" fill="rgb(52,52,64)"/><rect x="1257" y="259" width="9" height="9" fill="rgb(52,52,64)"/><rect x="1266" y="259" width="9" height="9" fill="rgb(52,52,64)"/><rect x="1275" y="259" width="9" height="9" fill="rgb(52,52,64)"/><rect x="1284" y="259" width="9" height="9" fill="rgb(52,52,64)"/><rect x="1293" y="259" width="9" height="9" fill="rgb(52,52,64)"/><rect x="1302" y="259" width="9" height="9" fill="rgb(52,52,64)"/><rect x="1311" y="259" width="9" height="9" fill="rgb(52,52,64)"/><rect x="1320" y="259" width="9" height="9" fill="rgb(52,52,64)"/><rect x="1329" y="259" width="9" height="9" fill="rgb(52,52,64)"/><rect x="1338" y="259" width="9" height="9" fill="rgb(52,52,64)"/><rect x="1347" y="259" width="9" height="9" fill="rgb(52,52,64)"/><rect x="1356" y="259" width="9" height="9" fill="rgb(52,52,64)"/><rect x="1365" y="259" width="9" height="9" fill="rgb(52,52,64)"/><rect x="1230" y="268" width="9" height="9" fill="rgb(52,52,64)"/><rect x="1239" y="268" width="9" height="9" fill="rgb(52,52,64)"/><rect x="1248" y="268" width="9" height="9" fill="rgb(52,52,64)"/><rect x="1257" y="268" width="9" height="9" fill="rgb(45,130,140)"/><rect x="1266" y="268" width="9" height="9" fill="rgb(45,130,140)"/><rect x="1275" y="268" width="9" height="9" fill="rgb(45,130,140)"/><rect x="1284" y="268" width="9" height="9" fill="rgb(45,130,140)"/><rect x="1293" y="268" width="9" height="9" fill="rgb(45,130,140)"/><rect x="1302" y="268" width="9" height="9" fill="rgb(45,130,140)"/><rect x="1311" y="268" width="9" height="9" fill="rgb(45,130,140)"/><rect x="1320" y="268" width="9" height="9" fill="rgb(45,130,140)"/><rect x="1329" y="268" width="9" height="9" fill="rgb(45,130,140)"/><rect x="1338" y="268" width="9" height="9" fill="rgb(45,130,140)"/><rect x="1347" y="268" width="9" height="9" fill="rgb(52,52,64)"/><rect x="1356" y="268" width="9" height="9" fill="rgb(52,52,64)"/><rect x="1365" y="268" width="9" height="9" fill="rgb(52,52,64)"/><rect x="1230" y="277" width="9" height="9" fill="rgb(52,52,64)"/><rect x="1239" y="277" width="9" height="9" fill="rgb(52,52,64)"/><rect x="1248" y="277" width="9" height="9" fill="rgb(52,52,64)"/><rect x="1257" y="277" width="9" height="9" fill="rgb(45,130,140)"/><rect x="1266" y="277" width="9" height="9" fill="rgb(45,130,140)"/><rect x="1275" y="277" width="9" height="9" fill="rgb(45,130,140)"/><rect x="1284" y="277" width="9" height="9" fill="rgb(45,130,140)"/><rect x="1293" y="277" width="9" height="9" fill="rgb(45,130,140)"/><rect x="1302" y="277" width="9" height="9" fill="rgb(45,130,140)"/><rect x="1311" y="277" width="9" height="9" fill="rgb(45,130,140)"/><rect x="1320" y="277" width="9" height="9" fill="rgb(45,130,140)"/><rect x="1329" y="277" width="9" height="9" fill="rgb(45,130,140)"/><rect x="1338" y="277" width="9" height="9" fill="rgb(45,130,140)"/><rect x="1347" y="277" width="9" height="9" fill="rgb(52,52,64)"/><rect x="1356" y="277" width="9" height="9" fill="rgb(52,52,64)"/><rect x="1365" y="277" width="9" height="9" fill="rgb(52,52,64)"/><rect x="1230" y="286" width="9" height="9" fill="rgb(52,52,64)"/><rect x="1239" y="286" width="9" height="9" fill="rgb(52,52,64)"/><rect x="1248" y="286" width="9" height="9" fill="rgb(52,52,64)"/><rect x="1257" y="286" width="9" height="9" fill="rgb(45,130,140)"/><rect x="1266" y="286" width="9" height="9" fill="rgb(45,130,140)"/><rect x="1275" y="286" width="9" height="9" fill="rgb(45,130,140)"/><rect x="1284" y="286" width="9" height="9" fill="rgb(45,130,140)"/><rect x="1293" y="286" width="9" height="9" fill="rgb(45,130,140)"/><rect x="1302" y="286" width="9" height="9" fill="rgb(45,130,140)"/><rect x="1311" y="286" width="9" height="9" fill="rgb(45,130,140)"/><rect x="1320" y="286" width="9" height="9" fill="rgb(45,130,140)"/><rect x="1329" y="286" width="9" height="9" fill="rgb(45,130,140)"/><rect x="1338" y="286" width="9" height="9" fill="rgb(45,130,140)"/><rect x="1347" y="286" width="9" height="9" fill="rgb(52,52,64)"/><rect x="1356" y="286" width="9" height="9" fill="rgb(52,52,64)"/><rect x="1365" y="286" width="9" height="9" fill="rgb(52,52,64)"/><rect x="1230" y="295" width="9" height="9" fill="rgb(52,52,64)"/><rect x="1239" y="295" width="9" height="9" fill="rgb(52,52,64)"/><rect x="1248" y="295" width="9" height="9" fill="rgb(52,52,64)"/><rect x="1257" y="295" width="9" height="9" fill="rgb(45,130,140)"/><rect x="1266" y="295" width="9" height="9" fill="rgb(45,130,140)"/><rect x="1275" y="295" width="9" height="9" fill="rgb(45,130,140)"/><rect x="1284" y="295" width="9" height="9" fill="rgb(45,130,140)"/><rect x="1293" y="295" width="9" height="9" fill="rgb(45,130,140)"/><rect x="1302" y="295" width="9" height="9" fill="rgb(45,130,140)"/><rect x="1311" y="295" width="9" height="9" fill="rgb(45,130,140)"/><rect x="1320" y="295" width="9" height="9" fill="rgb(45,130,140)"/><rect x="1329" y="295" width="9" height="9" fill="rgb(45,130,140)"/><rect x="1338" y="295" width="9" height="9" fill="rgb(45,130,140)"/><rect x="1347" y="295" width="9" height="9" fill="rgb(52,52,64)"/><rect x="1356" y="295" width="9" height="9" fill="rgb(52,52,64)"/><rect x="1365" y="295" width="9" height="9" fill="rgb(52,52,64)"/><rect x="1230" y="304" width="9" height="9" fill="rgb(52,52,64)"/><rect x="1239" y="304" width="9" height="9" fill="rgb(52,52,64)"/><rect x="1248" y="304" width="9" height="9" fill="rgb(52,52,64)"/><rect x="1257" y="304" width="9" height="9" fill="rgb(52,52,64)"/><rect x="1266" y="304" width="9" height="9" fill="rgb(52,52,64)"/><rect x="1275" y="304" width="9" height="9" fill="rgb(52,52,64)"/><rect x="1284" y="304" width="9" height="9" fill="rgb(52,52,64)"/><rect x="1293" y="304" width="9" height="9" fill="rgb(52,52,64)"/><rect x="1302" y="304" width="9" height="9" fill="rgb(52,52,64)"/><rect x="1311" y="304" width="9" height="9" fill="rgb(52,52,64)"/><rect x="1320" y="304" width="9" height="9" fill="rgb(52,52,64)"/><rect x="1329" y="304" width="9" height="9" fill="rgb(52,52,64)"/><rect x="1338" y="304" width="9" height="9" fill="rgb(52,52,64)"/><rect x="1347" y="304" width="9" height="9" fill="rgb(52,52,64)"/><rect x="1356" y="304" width="9" height="9" fill="rgb(52,52,64)"/><rect x="1365" y="304" width="9" height="9" fill="rgb(52,52,64)"/><rect x="1230" y="313" width="9" height="9" fill="rgb(52,52,64)"/><rect x="1239" y="313" width="9" height="9" fill="rgb(52,52,64)"/><rect x="1248" y="313" width="9" height="9" fill="rgb(52,52,64)"/><rect x="1257" y="313" width="9" height="9" fill="rgb(52,52,64)"/><rect x="1266" y="313" width="9" height="9" fill="rgb(52,52,64)"/><rect x="1275" y="313" width="9" height="9" fill="rgb(52,52,64)"/><rect x="1284" y="313" width="9" height="9" fill="rgb(52,52,64)"/><rect x="1293" y="313" width="9" height="9" fill="rgb(52,52,64)"/><rect x="1302" y="313" width="9" height="9" fill="rgb(52,52,64)"/><rect x="1311" y="313" width="9" height="9" fill="rgb(52,52,64)"/><rect x="1320" y="313" width="9" height="9" fill="rgb(52,52,64)"/><rect x="1329" y="313" width="9" height="9" fill="rgb(52,52,64)"/><rect x="1338" y="313" width="9" height="9" fill="rgb(52,52,64)"/><rect x="1347" y="313" width="9" height="9" fill="rgb(52,52,64)"/><rect x="1356" y="313" width="9" height="9" fill="rgb(52,52,64)"/><rect x="1365" y="313" width="9" height="9" fill="rgb(52,52,64)"/><rect x="1230" y="322" width="9" height="9" fill="rgb(52,52,64)"/><rect x="1239" y="322" width="9" height="9" fill="rgb(52,52,64)"/><rect x="1248" y="322" width="9" height="9" fill="rgb(52,52,64)"/><rect x="1257" y="322" width="9" height="9" fill="rgb(52,52,64)"/><rect x="1266" y="322" width="9" height="9" fill="rgb(52,52,64)"/><rect x="1275" y="322" width="9" height="9" fill="rgb(52,52,64)"/><rect x="1284" y="322" width="9" height="9" fill="rgb(52,52,64)"/><rect x="1293" y="322" width="9" height="9" fill="rgb(52,52,64)"/><rect x="1302" y="322" width="9" height="9" fill="rgb(52,52,64)"/><rect x="1311" y="322" width="9" height="9" fill="rgb(52,52,64)"/><rect x="1320" y="322" width="9" height="9" fill="rgb(52,52,64)"/><rect x="1329" y="322" width="9" height="9" fill="rgb(52,52,64)"/><rect x="1338" y="322" width="9" height="9" fill="rgb(52,52,64)"/><rect x="1347" y="322" width="9" height="9" fill="rgb(52,52,64)"/><rect x="1356" y="322" width="9" height="9" fill="rgb(52,52,64)"/><rect x="1365" y="322" width="9" height="9" fill="rgb(52,52,64)"/><rect x="1230" y="331" width="9" height="9" fill="rgb(52,52,64)"/><rect x="1239" y="331" width="9" height="9" fill="rgb(52,52,64)"/><rect x="1248" y="331" width="9" height="9" fill="rgb(52,52,64)"/><rect x="1257" y="331" width="9" height="9" fill="rgb(52,52,64)"/><rect x="1266" y="331" width="9" height="9" fill="rgb(52,52,64)"/><rect x="1275" y="331" width="9" height="9" fill="rgb(52,52,64)"/><rect x="1284" y="331" width="9" height="9" fill="rgb(52,52,64)"/><rect x="1293" y="331" width="9" height="9" fill="rgb(52,52,64)"/><rect x="1302" y="331" width="9" height="9" fill="rgb(52,52,64)"/><rect x="1311" y="331" width="9" height="9" fill="rgb(52,52,64)"/><rect x="1320" y="331" width="9" height="9" fill="rgb(52,52,64)"/><rect x="1329" y="331" width="9" height="9" fill="rgb(52,52,64)"/><rect x="1338" y="331" width="9" height="9" fill="rgb(52,52,64)"/><rect x="1347" y="331" width="9" height="9" fill="rgb(52,52,64)"/><rect x="1356" y="331" width="9" height="9" fill="rgb(52,52,64)"/><rect x="1365" y="331" width="9" height="9" fill="rgb(52,52,64)"/><rect x="1230" y="340" width="9" height="9" fill="rgb(52,52,64)"/><rect x="1239" y="340" width="9" height="9" fill="rgb(52,52,64)"/><rect x="1248" y="340" width="9" height="9" fill="rgb(52,52,64)"/><rect x="1257" y="340" width="9" height="9" fill="rgb(52,52,64)"/><rect x="1266" y="340" width="9" height="9" fill="rgb(52,52,64)"/><rect x="1275" y="340" width="9" height="9" fill="rgb(52,52,64)"/><rect x="1284" y="340" width="9" height="9" fill="rgb(52,52,64)"/><rect x="1293" y="340" width="9" height="9" fill="rgb(52,52,64)"/><rect x="1302" y="340" width="9" height="9" fill="rgb(52,52,64)"/><rect x="1311" y="340" width="9" height="9" fill="rgb(52,52,64)"/><rect x="1320" y="340" width="9" height="9" fill="rgb(52,52,64)"/><rect x="1329" y="340" width="9" height="9" fill="rgb(52,52,64)"/><rect x="1338" y="340" width="9" height="9" fill="rgb(52,52,64)"/><rect x="1347" y="340" width="9" height="9" fill="rgb(52,52,64)"/><rect x="1356" y="340" width="9" height="9" fill="rgb(52,52,64)"/><rect x="1365" y="340" width="9" height="9" fill="rgb(52,52,64)"/><rect x="1230" y="349" width="9" height="9" fill="rgb(52,52,64)"/><rect x="1239" y="349" width="9" height="9" fill="rgb(52,52,64)"/><rect x="1248" y="349" width="9" height="9" fill="rgb(52,52,64)"/><rect x="1257" y="349" width="9" height="9" fill="rgb(52,52,64)"/><rect x="1266" y="349" width="9" height="9" fill="rgb(52,52,64)"/><rect x="1275" y="349" width="9" height="9" fill="rgb(52,52,64)"/><rect x="1284" y="349" width="9" height="9" fill="rgb(52,52,64)"/><rect x="1293" y="349" width="9" height="9" fill="rgb(52,52,64)"/><rect x="1302" y="349" width="9" height="9" fill="rgb(52,52,64)"/><rect x="1311" y="349" width="9" height="9" fill="rgb(52,52,64)"/><rect x="1320" y="349" width="9" height="9" fill="rgb(52,52,64)"/><rect x="1329" y="349" width="9" height="9" fill="rgb(52,52,64)"/><rect x="1338" y="349" width="9" height="9" fill="rgb(52,52,64)"/><rect x="1347" y="349" width="9" height="9" fill="rgb(52,52,64)"/><rect x="1356" y="349" width="9" height="9" fill="rgb(52,52,64)"/><rect x="1365" y="349" width="9" height="9" fill="rgb(52,52,64)"/><rect x="1230" y="358" width="9" height="9" fill="rgb(52,52,64)"/><rect x="1239" y="358" width="9" height="9" fill="rgb(52,52,64)"/><rect x="1248" y="358" width="9" height="9" fill="rgb(52,52,64)"/><rect x="1257" y="358" width="9" height="9" fill="rgb(52,52,64)"/><rect x="1266" y="358" width="9" height="9" fill="rgb(52,52,64)"/><rect x="1275" y="358" width="9" height="9" fill="rgb(52,52,64)"/><rect x="1284" y="358" width="9" height="9" fill="rgb(52,52,64)"/><rect x="1293" y="358" width="9" height="9" fill="rgb(52,52,64)"/><rect x="1302" y="358" width="9" height="9" fill="rgb(52,52,64)"/><rect x="1311" y="358" width="9" height="9" fill="rgb(52,52,64)"/><rect x="1320" y="358" width="9" height="9" fill="rgb(52,52,64)"/><rect x="1329" y="358" width="9" height="9" fill="rgb(52,52,64)"/><rect x="1338" y="358" width="9" height="9" fill="rgb(52,52,64)"/><rect x="1347" y="358" width="9" height="9" fill="rgb(52,52,64)"/><rect x="1356" y="358" width="9" height="9" fill="rgb(52,52,64)"/><rect x="1365" y="358" width="9" height="9" fill="rgb(52,52,64)"/><rect x="1230" y="367" width="9" height="9" fill="rgb(52,52,64)"/><rect x="1239" y="367" width="9" height="9" fill="rgb(52,52,64)"/><rect x="1248" y="367" width="9" height="9" fill="rgb(52,52,64)"/><rect x="1257" y="367" width="9" height="9" fill="rgb(52,52,64)"/><rect x="1266" y="367" width="9" height="9" fill="rgb(52,52,64)"/><rect x="1275" y="367" width="9" height="9" fill="rgb(52,52,64)"/><rect x="1284" y="367" width="9" height="9" fill="rgb(52,52,64)"/><rect x="1293" y="367" width="9" height="9" fill="rgb(52,52,64)"/><rect x="1302" y="367" width="9" height="9" fill="rgb(52,52,64)"/><rect x="1311" y="367" width="9" height="9" fill="rgb(52,52,64)"/><rect x="1320" y="367" width="9" height="9" fill="rgb(52,52,64)"/><rect x="1329" y="367" width="9" height="9" fill="rgb(52,52,64)"/><rect x="1338" y="367" width="9" height="9" fill="rgb(52,52,64)"/><rect x="1347" y="367" width="9" height="9" fill="rgb(52,52,64)"/><rect x="1356" y="367" width="9" height="9" fill="rgb(52,52,64)"/><rect x="1365" y="367" width="9" height="9" fill="rgb(52,52,64)"/><rect x="1230" y="376" width="9" height="9" fill="rgb(52,52,64)"/><rect x="1239" y="376" width="9" height="9" fill="rgb(52,52,64)"/><rect x="1248" y="376" width="9" height="9" fill="rgb(52,52,64)"/><rect x="1257" y="376" width="9" height="9" fill="rgb(52,52,64)"/><rect x="1266" y="376" width="9" height="9" fill="rgb(52,52,64)"/><rect x="1275" y="376" width="9" height="9" fill="rgb(52,52,64)"/><rect x="1284" y="376" width="9" height="9" fill="rgb(52,52,64)"/><rect x="1293" y="376" width="9" height="9" fill="rgb(52,52,64)"/><rect x="1302" y="376" width="9" height="9" fill="rgb(52,52,64)"/><rect x="1311" y="376" width="9" height="9" fill="rgb(52,52,64)"/><rect x="1320" y="376" width="9" height="9" fill="rgb(52,52,64)"/><rect x="1329" y="376" width="9" height="9" fill="rgb(52,52,64)"/><rect x="1338" y="376" width="9" height="9" fill="rgb(52,52,64)"/><rect x="1347" y="376" width="9" height="9" fill="rgb(52,52,64)"/><rect x="1356" y="376" width="9" height="9" fill="rgb(52,52,64)"/><rect x="1365" y="376" width="9" height="9" fill="rgb(52,52,64)"/><rect x="1230" y="385" width="9" height="9" fill="rgb(52,52,64)"/><rect x="1239" y="385" width="9" height="9" fill="rgb(52,52,64)"/><rect x="1248" y="385" width="9" height="9" fill="rgb(52,52,64)"/><rect x="1257" y="385" width="9" height="9" fill="rgb(52,52,64)"/><rect x="1266" y="385" width="9" height="9" fill="rgb(52,52,64)"/><rect x="1275" y="385" width="9" height="9" fill="rgb(52,52,64)"/><rect x="1284" y="385" width="9" height="9" fill="rgb(52,52,64)"/><rect x="1293" y="385" width="9" height="9" fill="rgb(52,52,64)"/><rect x="1302" y="385" width="9" height="9" fill="rgb(52,52,64)"/><rect x="1311" y="385" width="9" height="9" fill="rgb(52,52,64)"/><rect x="1320" y="385" width="9" height="9" fill="rgb(52,52,64)"/><rect x="1329" y="385" width="9" height="9" fill="rgb(52,52,64)"/><rect x="1338" y="385" width="9" height="9" fill="rgb(52,52,64)"/><rect x="1347" y="385" width="9" height="9" fill="rgb(52,52,64)"/><rect x="1356" y="385" width="9" height="9" fill="rgb(52,52,64)"/><rect x="1365" y="385" width="9" height="9" fill="rgb(52,52,64)"/>
<rect x="560" y="430" width="220" height="10" rx="5" fill="#e8a33d"/>
<polygon points="780,418 820,435 780,452" fill="#e8a33d"/>
<text x="880" y="330" text-anchor="middle" font-size="118" fill="#ffffff" font-weight="bold" font-family="ui-monospace, 'Cascadia Code', Menlo, Consolas, monospace" letter-spacing="18">SPIREFALL</text>
<text x="880" y="400" text-anchor="middle" font-size="34" fill="#9aa7c2" font-weight="normal" font-family="ui-monospace, 'Cascadia Code', Menlo, Consolas, monospace">a project-based book</text>
<text x="880" y="448" text-anchor="middle" font-size="34" fill="#9aa7c2" font-weight="normal" font-family="ui-monospace, 'Cascadia Code', Menlo, Consolas, monospace">one arena platformer, built incrementally</text>
<text x="880" y="496" text-anchor="middle" font-size="34" fill="#9aa7c2" font-weight="normal" font-family="ui-monospace, 'Cascadia Code', Menlo, Consolas, monospace">with Nez on FNA</text>
<rect x="640" y="560" width="150" height="44" rx="22" fill="none" stroke="#e8a33d" stroke-width="2"/>
<text x="715" y="589" text-anchor="middle" font-size="20" fill="#e8a33d" font-weight="normal" font-family="ui-monospace, 'Cascadia Code', Menlo, Consolas, monospace">NEZ</text>
<rect x="810" y="560" width="150" height="44" rx="22" fill="none" stroke="#e8a33d" stroke-width="2"/>
<text x="885" y="589" text-anchor="middle" font-size="20" fill="#e8a33d" font-weight="normal" font-family="ui-monospace, 'Cascadia Code', Menlo, Consolas, monospace">FNA</text>
<rect x="980" y="560" width="150" height="44" rx="22" fill="none" stroke="#e8a33d" stroke-width="2"/>
<text x="1055" y="589" text-anchor="middle" font-size="20" fill="#e8a33d" font-weight="normal" font-family="ui-monospace, 'Cascadia Code', Menlo, Consolas, monospace">C#</text>
<rect x="1150" y="560" width="150" height="44" rx="22" fill="none" stroke="#e8a33d" stroke-width="2"/>
<text x="1225" y="589" text-anchor="middle" font-size="20" fill="#e8a33d" font-weight="normal" font-family="ui-monospace, 'Cascadia Code', Menlo, Consolas, monospace">16×16 PIXEL ART</text>
<text x="880" y="830" text-anchor="middle" font-size="22" fill="#5b6b8c" font-weight="normal" font-family="ui-monospace, 'Cascadia Code', Menlo, Consolas, monospace">rez-fish / nez-platformer-book</text>
</svg>