<svg xmlns="http://www.w3.org/2000/svg" viewBox="0 0 560 340">
<rect x="210" y="16" width="140" height="44" rx="8" fill="#243044" stroke="#3d5170" stroke-width="1.5"/>
<text x="280" y="44" text-anchor="middle" font-size="16" fill="#ffffff" font-weight="bold" font-family="ui-monospace, 'Cascadia Code', Menlo, Consolas, monospace">Scene</text>
<line x1="280" y1="60" x2="145" y2="96" stroke="#8a94a6" stroke-width="1.5"/><polygon points="145,96 138,92 138,100" fill="#8a94a6"/>
<rect x="70" y="96" width="150" height="40" rx="8" fill="#243044" stroke="#3d5170" stroke-width="1.5"/>
<text x="145" y="122" text-anchor="middle" font-size="14" fill="#ffffff" font-weight="normal" font-family="ui-monospace, 'Cascadia Code', Menlo, Consolas, monospace">Entity "archer"</text>
<rect x="25" y="152" width="130" height="30" rx="15" fill="#1b2740" stroke="#5b9bd5" stroke-width="1.2"/>
<text x="90" y="172" text-anchor="middle" font-size="11.5" fill="#ffffff" font-weight="normal" font-family="ui-monospace, 'Cascadia Code', Menlo, Consolas, monospace">SpriteRenderer</text>
<line x1="145" y1="136" x2="90" y2="152" stroke="#3d5170" stroke-width="1"/>
<rect x="165" y="152" width="130" height="30" rx="15" fill="#1b2740" stroke="#5b9bd5" stroke-width="1.2"/>
<text x="230" y="172" text-anchor="middle" font-size="11.5" fill="#ffffff" font-weight="normal" font-family="ui-monospace, 'Cascadia Code', Menlo, Consolas, monospace">BoxCollider</text>
<line x1="145" y1="136" x2="230" y2="152" stroke="#3d5170" stroke-width="1"/>
<rect x="25" y="192" width="130" height="30" rx="15" fill="#1b2740" stroke="#5b9bd5" stroke-width="1.2"/>
<text x="90" y="212" text-anchor="middle" font-size="11.5" fill="#ffffff" font-weight="normal" font-family="ui-monospace, 'Cascadia Code', Menlo, Consolas, monospace">Mover</text>
<line x1="145" y1="136" x2="90" y2="192" stroke="#3d5170" stroke-width="1"/>
<rect x="165" y="192" width="130" height="30" rx="15" fill="#1b2740" stroke="#5b9bd5" stroke-width="1.2"/>
<text x="230" y="212" text-anchor="middle" font-size="11.5" fill="#ffffff" font-weight="normal" font-family="ui-monospace, 'Cascadia Code', Menlo, Consolas, monospace">PlayerController</text>
<line x1="145" y1="136" x2="230" y2="192" stroke="#3d5170" stroke-width="1"/>
<line x1="280" y1="60" x2="405" y2="96" stroke="#8a94a6" stroke-width="1.5"/><polygon points="405,96 398,92 398,100" fill="#8a94a6"/>
<rect x="330" y="96" width="150" height="40" rx="8" fill="#243044" stroke="#3d5170" stroke-width="1.5"/>
<text x="405" y="122" text-anchor="middle" font-size="14" fill="#ffffff" font-weight="normal" font-family="ui-monospace, 'Cascadia Code', Menlo, Consolas, monospace">Entity "platform"</text>
<rect x="285" y="152" width="130" height="30" rx="15" fill="#1b2740" stroke="#5b9bd5" stroke-width="1.2"/>
<text x="350" y="172" text-anchor="middle" font-size="11.5" fill="#ffffff" font-weight="normal" font-family="ui-monospace, 'Cascadia Code', Menlo, Consolas, monospace">BoxCollider</text>
<line x1="405" y1="136" x2="350" y2="152" stroke="#3d5170" stroke-width="1"/>
<text x="280" y="330" text-anchor="middle" font-size="13" fill="#8a94a6" font-weight="normal" font-family="ui-monospace, 'Cascadia Code', Menlo, Consolas, monospace">entities are bags of components; systems read the bags</text>
</svg>